# xmcd CD database file
#
# Track frame offsets:
#	150
#	17711
#	28963
#	39422
#	54960
#	66944
#	77471
#	87786
#	103350
#	116689
#	128907
#	138827
#	149388
#	159907
#	176368
#	193305
#	202635
#	214283
#	225800
#	238484
#	250241
#	260128
#	274863
#	284461
#	297215
#	313087
#	322540
#	340393
#
# Disc length: 4797 seconds
#
# Revision: 3
# Processed by: cddbd v1.5.2PL0 Copyright (c) Steve Scherf et al.
# Submitted via: CDex 1.70beta1
#
DISCID=9b12bb1c
DTITLE=Various Artist - A History Of UK Blues And R&B 1955 - 2001 cd 1
DYEAR=2002
DGENRE=Blues
TTITLE0=Lonnie Donegan - I've Got Rocks In My Bed
TTITLE1=Chris Barber with Lonnie Donegan Group - Harmonica Blues
TTITLE2=Blues Incorporated - She Fooled Me
TTITLE3=Blues Incorporated - I'm Your Hoochie Coochie Man
TTITLE4=The Yardbirds - Baby What's Wrong
TTITLE5=Cyril Davies and His R&B All-Stars - Country Line Special
TTITLE6=The Yardbirds - Let It Rock
TTITLE7=The Animals - Dimples
TTITLE8=Cyril Davies and His R&B All-Stars - Sweet Mary
TTITLE9=Alexis Korner's Blues Incorporated - Woke Up This Morning
TTITLE10=The Checkmates - Sticks And Stones
TTITLE11=The Pretty Things - Rosalyn
TTITLE12=The Yardbirds - I Wish You Would
TTITLE13=The Primitives - Help Me
TTITLE14=The Kinks - Got Love If You Want It
TTITLE15=The Brand - I'm A Lover Not A Fighter
TTITLE16=The Sheffields - I Got My Mojo Working
TTITLE17=The Downliners Sect - Cops And Robbers
TTITLE18=Jimmy Powell and The Dimensions - Sugar Baby
TTITLE19=The Yardbirds - Got To Hurry
TTITLE20=David John and The Mood - Bring It To Jerome
TTITLE21=Spencer Davis Group - Stevie's Blues
TTITLE22=The Soul Agents - Let's Make It Pretty Baby
TTITLE23=Jo Ann Kelly - I Feel So Good
TTITLE24=Little Joe Cook - Stormy Monday Blues
TTITLE25=All-Stars featuring Jimmy Page - L A Breakdown
TTITLE26=John Mayall's Bluesbreakers with Eric Clapton - Telephone Blues
TTITLE27=Steampacket - Lord Remember Me
EXTD=YEAR: 2002
EXTT0=
EXTT1=
EXTT2=
EXTT3=
EXTT4=
EXTT5=
EXTT6=
EXTT7=
EXTT8=
EXTT9=
EXTT10=
EXTT11=
EXTT12=
EXTT13=
EXTT14=
EXTT15=
EXTT16=
EXTT17=
EXTT18=
EXTT19=
EXTT20=
EXTT21=
EXTT22=
EXTT23=
EXTT24=
EXTT25=
EXTT26=
EXTT27=
PLAYORDER=
